<?xml version="1.0" encoding="utf-8"?>
<!-- Generator: Adobe Illustrator 16.0.0, SVG Export Plug-In . SVG Version: 6.00 Build 0)  -->
<!DOCTYPE svg PUBLIC "-//W3C//DTD SVG 1.1//EN" "http://www.w3.org/Graphics/SVG/1.1/DTD/svg11.dtd">
<svg version="1.1" id="Layer_4" xmlns="http://www.w3.org/2000/svg" xmlns:xlink="http://www.w3.org/1999/xlink" x="0px" y="0px"
	 width="640px" height="480px" viewBox="0 0 640 480" enable-background="new 0 0 640 480" xml:space="preserve">
<path fill="#FFFFFF" d="M640,480H0V0h640V480z M155.296,135.259l-27.54,72.828h16.116l5.712-16.218h27.234l5.508,16.218h16.626
	l-27.234-72.828H155.296z M153.766,179.936l9.486-26.724h0.204l9.18,26.724H153.766z M205.276,135.259v72.828h14.994v-51.102h0.204
	l17.85,51.102h12.342l17.85-51.612h0.204v51.612h14.994v-72.828h-22.542l-16.116,50.082h-0.204l-17.034-50.082H205.276z
	 M297.79,135.259v72.828h14.994v-51.102h0.204l17.851,51.102h12.342l17.85-51.612h0.204v51.612h14.994v-72.828h-22.542
	l-16.116,50.082h-0.204l-17.034-50.082H297.79z M410.193,135.259l-27.539,72.828h16.115l5.712-16.218h27.234l5.508,16.218h16.626
	l-27.234-72.828H410.193z M408.664,179.936l9.485-26.724h0.204l9.18,26.724H408.664z M460.174,135.259v72.828h16.014v-28.458h16.014
	c4.012,0,6.9,0.885,8.67,2.652c1.768,1.769,2.924,4.557,3.469,8.364c0.408,2.924,0.713,5.984,0.918,9.18
	c0.203,3.197,0.746,5.951,1.631,8.262h16.014c-0.748-1.02-1.309-2.26-1.682-3.723c-0.375-1.461-0.648-3.009-0.816-4.641
	c-0.17-1.632-0.291-3.229-0.357-4.794c-0.068-1.563-0.137-2.923-0.203-4.08c-0.137-1.836-0.393-3.672-0.766-5.508
	c-0.375-1.836-0.969-3.519-1.785-5.049c-0.816-1.53-1.871-2.856-3.162-3.978c-1.293-1.122-2.924-1.954-4.896-2.499v-0.204
	c4.08-1.632,7.021-4.011,8.824-7.14c1.801-3.127,2.703-6.834,2.703-11.118c0-2.788-0.494-5.389-1.479-7.803
	c-0.988-2.413-2.416-4.539-4.285-6.375c-1.871-1.836-4.115-3.28-6.732-4.335c-2.617-1.053-5.559-1.581-8.822-1.581H460.174z
	 M476.188,168.206v-20.502h17.543c3.672,0,6.428,0.8,8.264,2.397c1.836,1.598,2.754,4.166,2.754,7.701
	c0,3.672-0.918,6.324-2.754,7.956s-4.592,2.448-8.264,2.448H476.188z M213.333,307.537V257.66h-16.014v49.164
	c0,1.293-0.051,2.635-0.153,4.029s-0.408,2.686-0.918,3.875c-0.51,1.191-1.343,2.16-2.499,2.908
	c-1.157,0.748-2.789,1.121-4.896,1.121c-1.904,0-3.452-0.307-4.641-0.918c-1.191-0.611-2.126-1.443-2.805-2.5
	c-0.681-1.053-1.157-2.328-1.428-3.824c-0.272-1.494-0.408-3.127-0.408-4.896v-3.264h-14.484v6.324c0,4.014,0.679,7.43,2.04,10.252
	c1.36,2.822,3.162,5.135,5.406,6.936c2.244,1.803,4.794,3.129,7.65,3.979c2.856,0.848,5.814,1.273,8.874,1.273
	c5.439,0,9.757-0.832,12.954-2.498c3.195-1.666,5.644-3.738,7.344-6.223c1.699-2.48,2.788-5.15,3.264-8.006
	C213.094,312.535,213.333,309.918,213.333,307.537z M247.299,257.66l-27.54,72.828h16.116l5.712-16.219h27.234l5.508,16.219h16.626
	l-27.234-72.828H247.299z M245.769,302.336l9.486-26.725h0.204l9.18,26.725H245.769z M326.451,330.488l24.175-72.828h-16.524
	l-16.422,51.203h-0.204l-16.218-51.203h-16.422l23.562,72.828H326.451z M356.848,257.66v72.828h55.283v-13.465h-39.27v-17.85h35.292
	V286.73h-35.292v-15.606h38.453V257.66H356.848z M422.942,257.66v72.828h31.416c5.575,0,10.42-0.934,14.534-2.805
	s7.549-4.438,10.303-7.701s4.811-7.141,6.172-11.629c1.359-4.488,2.039-9.383,2.039-14.688c0-6.052-0.832-11.322-2.498-15.811
	c-1.668-4.488-3.979-8.227-6.938-11.22c-2.957-2.991-6.461-5.235-10.506-6.731c-4.046-1.496-8.414-2.244-13.106-2.244H422.942z
	 M438.956,317.023v-45.899h11.425c3.942,0,7.258,0.561,9.944,1.683c2.686,1.122,4.845,2.738,6.478,4.846
	c1.631,2.107,2.805,4.641,3.519,7.599s1.071,6.272,1.071,9.944c0,4.014-0.51,7.412-1.53,10.201s-2.381,5.049-4.08,6.783
	c-1.7,1.732-3.639,2.975-5.813,3.723c-2.178,0.748-4.422,1.121-6.732,1.121H438.956z"/>
</svg>
