<?xml version="1.0" encoding="utf-8"?>
<!-- Generator: Adobe Illustrator 16.0.0, SVG Export Plug-In . SVG Version: 6.00 Build 0)  -->
<!DOCTYPE svg PUBLIC "-//W3C//DTD SVG 1.1//EN" "http://www.w3.org/Graphics/SVG/1.1/DTD/svg11.dtd">
<svg version="1.1" id="Layer_4" xmlns="http://www.w3.org/2000/svg" xmlns:xlink="http://www.w3.org/1999/xlink" x="0px" y="0px"
	 width="640px" height="480px" viewBox="0 0 640 480" enable-background="new 0 0 640 480" xml:space="preserve">
<path fill="#FFFFFF" d="M638.369,480H0V0h638.369V480z M200.325,225.495l15.071-70.651c-2.304-0.96-5.375-1.344-7.583-1.344
	c-11.231,0-23.71,12.959-33.406,28.318c-2.016-0.192-3.647-0.288-4.992-0.288c-11.327,0-19.583,5.28-19.583,11.807
	c0,3.744,2.688,5.568,5.952,5.568c2.976,0,5.375-1.44,5.375-3.744c0-1.344-0.768-2.976-1.248-2.976
	c1.248-3.264,5.279-4.608,11.231-4.992c-8.351,14.687-14.111,30.43-14.111,39.069c0,9.983,7.679,10.175,12.863,10.175
	c-0.576-0.864-1.344-2.304-1.344-5.376c0-9.983,5.28-28.222,12.479-43.869c4.224,0.384,7.968,1.248,12.863,3.456l-7.392,34.846
	H200.325z M194.757,186.426c-3.744-1.536-7.871-2.592-11.711-3.359c5.375-10.751,11.519-19.679,17.279-22.75L194.757,186.426z
	 M280.196,225.495l10.079-70.651h-13.823l-21.119,50.588l2.208-50.588c-2.304-0.864-4.8-1.344-7.295-1.344
	c-14.591,0-30.526,13.247-30.526,25.534c0,6.335,4.032,8.735,10.271,8.735c-0.096-0.864-1.344-1.536-1.344-6.624
	c0-10.943,5.76-18.431,15.263-21.599l-24.382,65.947h7.679l16.031-43.293l-1.919,43.293h13.151l18.047-43.101l-6.144,43.101H280.196
	z M355.746,225.495l10.08-70.651h-13.823l-21.118,50.588l2.207-50.588c-2.303-0.864-4.799-1.344-7.295-1.344
	c-14.591,0-30.526,13.247-30.526,25.534c0,6.335,4.032,8.735,10.271,8.735c-0.096-0.864-1.344-1.536-1.344-6.624
	c0-10.943,5.76-18.431,15.263-21.599l-24.382,65.947h7.679l16.031-43.293l-1.919,43.293h13.151l18.047-43.101l-6.144,43.101H355.746
	z M415.555,225.495l15.07-70.651c-2.303-0.96-5.375-1.344-7.583-1.344c-11.231,0-23.71,12.959-33.405,28.318
	c-2.016-0.192-3.648-0.288-4.992-0.288c-11.327,0-19.582,5.28-19.582,11.807c0,3.744,2.688,5.568,5.951,5.568
	c2.977,0,5.375-1.44,5.375-3.744c0-1.344-0.768-2.976-1.247-2.976c1.247-3.264,5.279-4.608,11.231-4.992
	c-8.352,14.687-14.111,30.43-14.111,39.069c0,9.983,7.68,10.175,12.863,10.175c-0.576-0.864-1.344-2.304-1.344-5.376
	c0-9.983,5.279-28.222,12.479-43.869c4.224,0.384,7.968,1.248,12.863,3.456l-7.392,34.846H415.555z M409.986,186.426
	c-3.743-1.536-7.871-2.592-11.711-3.359c5.376-10.751,11.52-19.679,17.279-22.75L409.986,186.426z M450.404,164.443l-13.055,61.052
	h13.822l7.68-36.189c1.248-0.192,2.305-0.384,3.168-0.384c4.32,0,5.76,2.688,5.76,6.527c0,7.295-5.088,18.911-5.088,25.246
	c0,3.168,1.248,6.432,7.488,6.432c2.303,0,5.471-0.48,9.503-1.632c-2.304-0.864-3.744-3.456-3.744-6.335
	c0-6.048,4.704-16.415,4.704-24.286c0-4.512-1.536-8.16-6.623-9.6c6.623-3.936,10.367-10.559,10.367-16.415
	c0-7.872-6.624-15.359-21.791-15.359c-16.031,0-33.693,12.191-33.693,24.958c0,6.912,3.647,9.312,10.271,9.312
	c-0.097-0.864-1.344-1.632-1.344-6.528c0-14.591,10.367-23.326,25.918-23.326c7.486,0,10.559,4.704,10.559,10.079
	c0,7.295-5.664,16.703-13.631,16.703h-0.768l4.703-22.175L450.404,164.443z M227.972,268.701c-16.031,0-33.693,12.19-33.693,24.957
	c0,6.912,3.648,9.312,10.271,9.312c-0.096-0.863-1.344-1.632-1.344-6.527c0-10.271,5.184-17.566,13.535-21.022l-15.071,68.539
	c-2.208,9.888-4.8,11.808-9.12,11.808c-2.784,0-6.527-1.729-6.527-6.72c0-3.552,2.304-7.104,6.72-7.104
	c1.919,0,3.359,0.479,5.759,2.496c0.384-1.44,0.576-2.784,0.576-3.84c0-6.144-5.568-6.432-9.407-6.432
	c-7.583,0-11.711,6.335-11.711,12.863c0,7.967,5.088,13.534,14.207,13.534c15.743,0,22.174-9.022,25.246-23.71l14.399-68.154
	H227.972z M279.14,340.695l15.071-70.65c-2.304-0.961-5.375-1.344-7.583-1.344c-11.231,0-23.71,12.959-33.406,28.317
	c-2.016-0.192-3.647-0.288-4.992-0.288c-11.327,0-19.583,5.279-19.583,11.808c0,3.743,2.688,5.567,5.952,5.567
	c2.976,0,5.375-1.44,5.375-3.744c0-1.344-0.768-2.976-1.248-2.976c1.248-3.264,5.279-4.607,11.231-4.991
	c-8.352,14.687-14.111,30.43-14.111,39.068c0,9.983,7.679,10.176,12.863,10.176c-0.576-0.864-1.344-2.304-1.344-5.376
	c0-9.983,5.28-28.222,12.479-43.868c4.224,0.384,7.968,1.247,12.863,3.455l-7.392,34.846H279.14z M273.572,301.626
	c-3.744-1.536-7.871-2.592-11.711-3.359c5.375-10.751,11.519-19.679,17.279-22.751L273.572,301.626z M330.021,268.893
	c-1.248-0.096-2.496-0.191-3.84-0.191c-16.031,0-33.694,12.19-33.694,24.957c0,6.912,3.647,9.312,10.271,9.312
	c-0.096-0.863-1.344-1.632-1.344-6.527c0-10.56,4.607-18.046,15.071-21.311v65.563h14.59l26.687-71.515h-6.72l-20.158,58.748
	L330.021,268.893z M395.203,323.417c-3.455,6.335-11.902,9.791-17.758,9.791c-6.528,0-9.12-4.32-9.12-9.695
	c0-8.831,6.911-20.639,17.183-22.942c-6.911-1.824-9.695-7.295-9.695-12.863c0-6.719,4.128-13.535,9.791-13.535
	c2.592,0,5.28,1.439,5.28,5.376c0,3.264-1.823,7.583-4.224,8.351c1.344,1.824,2.88,2.592,4.512,2.592
	c3.84,0,7.104-4.223,7.104-9.982c0-7.871-6.144-11.999-13.727-11.999c-12.287,0-21.023,10.751-21.023,20.638
	c0,4.32,1.729,8.544,5.855,11.52c-11.039,2.688-17.758,14.783-17.758,24.862c0,9.023,5.375,16.895,17.662,16.895
	c11.424,0,23.135-6.719,28.126-18.046L395.203,323.417z M417.094,279.644l-13.056,61.052h13.823l0.768-3.84
	c4.128,3.552,8.063,5.088,11.711,5.088c14.207,0,26.59-23.519,26.59-45.597c0-14.687-7.007-27.646-25.63-27.646
	c-19.486,0-35.709,12.19-35.709,25.342c0,6.527,3.936,8.927,10.271,8.927c-0.096-0.863-1.344-1.632-1.344-6.527
	c0-14.591,10.848-23.326,25.15-23.326c8.352,0,14.016,5.087,14.016,18.143c0,19.391-7.008,42.237-18.432,42.237
	c-1.823,0-3.647-0.576-5.471-1.92l11.519-53.853L417.094,279.644z"/>
</svg>
